# xmcd
#
# Track frame offsets: 
#        150
#        16950
#        31450
#        46328
#        64479
#        85258
#        98666
#        112202
#        126664
#        146103
#        161686
#        182064
#        200966
#        219648
#        232819
#        250059
#        268893
#        282555
#        297486
#        312965
#
# Disc length: 4423 seconds
#
# Revision: 1
# Processed by: cddbd v1.5.2PL0 Copyright (c) Steve Scherf et al.
# Submitted via: ExactAudioCopy v0.95b3
#
DISCID=45114514
DTITLE=Various Artist - Texas Music Series - 95.9 FM - The Ranch
DYEAR=2003
DGENRE=Country
TTITLE0=Deryl Dodd - Things are Fixin' to Get Real Good
TTITLE1=Blue Edmonson with Matt Powell - $50 Dollars and a Flask of Cr
TTITLE1=own
TTITLE2=Terri Hendrix - Goodbye Charlie Brown
TTITLE3=Radney Foster - Just Sit Still
TTITLE4=Jack Ingram with Jim Lauderdale - Work This Out (Live)
TTITLE5=Reckless Kelly - Crazy Eddie's Last Hurrah
TTITLE6=Billy Joe Shaver - Good Ol' U.S.A.
TTITLE7=Eleven Hundred Springs - See You in the Next Life
TTITLE8=Harris and Ryden - This Hard Town
TTITLE9=Gary P. Nunn - Roadtrip
TTITLE10=Roger Creager - Fun All Wrong
TTITLE11=Ray Wylie Hubbard - When She Sang Amazing Grace
TTITLE12=Cooder Graw - Shifting Gears
TTITLE13=Tommy Alverson - Lovin' You
TTITLE14=Two Tons of Steel - King of a One Horse Town
TTITLE15=Ray Benson - Ain't Got Nothin' but the Blues
TTITLE16=Max Stalling - Blue Eyes
TTITLE17=Kevin Fowler - Senorita Mas Fina
TTITLE18=Larry Joe Taylor - Summer Days
TTITLE19=Dan Roberts - I'm The One to Call
EXTD=
EXTT0=
EXTT1=
EXTT2=
EXTT3=
EXTT4=
EXTT5=
EXTT6=
EXTT7=
EXTT8=
EXTT9=
EXTT10=
EXTT11=
EXTT12=
EXTT13=
EXTT14=
EXTT15=
EXTT16=
EXTT17=
EXTT18=
EXTT19=
PLAYORDER=
